<svg width="203" height="42" viewBox="0 0 203 42" fill="none" xmlns="http://www.w3.org/2000/svg">
<g clip-path="url(#clip0_124_301)">
<path d="M145.066 16.8936C144.586 17.0973 144.125 18.1027 143.746 18.5918C144.593 19.0605 145.556 17.814 145.38 17.009" fill="white"/>
<path d="M12.168 9.40114C12.6542 8.81357 12.3938 8.25995 12.9836 7.73011C13.4667 7.29537 14.1725 7.23084 14.7779 7.24782C16.6601 7.29877 16.886 8.05956 16.6852 9.96495C16.497 11.7752 15.6124 13.1406 15.0195 14.8286C14.4266 16.5166 13.8619 18.1978 12.9365 19.716C14.5521 18.9349 16.0735 18.0586 17.642 17.1246C19.0568 16.2755 21.2087 16.1057 22.3474 14.8626C23.4862 13.6195 23.5269 11.3643 24.0602 9.84947C24.4724 8.83389 24.806 7.78306 25.0578 6.70779C25.2303 5.74661 25.1237 5.08091 25.5723 4.18426C26.4632 2.41133 26.6639 -1.73229 29.2896 0.794643C30.8392 2.28567 29.8887 4.78203 29.0261 6.48023C28.4238 7.67577 26.7455 10.7257 27.2474 12.1183C27.6929 13.3478 29.1986 12.57 30.1522 12.7976C31.1059 13.0251 31.3537 13.7214 31.7207 14.5705C32.6242 13.7248 33.3833 12.801 34.4374 12.1251C35.8019 11.2488 36.4262 10.9193 37.9947 10.9941C39.4879 11.0654 42.01 11.2522 42.628 13.0319C42.9731 14.0135 42.3614 15.1309 42.1543 16.0887C41.9128 17.2095 41.7841 18.3643 41.4767 19.4851C40.8242 21.8626 40.5168 24.3827 40.0902 26.8451C39.8361 28.3022 39.7765 29.7592 40.1937 31.145C40.3662 31.6986 40.6799 32.0178 40.5356 32.6224C40.4352 33.0503 39.9616 33.142 39.8643 33.6209C38.6597 33.733 38.1892 32.602 37.3767 31.9601C36.3666 31.1823 36.0466 31.1993 36.3509 29.7015C36.834 27.2934 36.3509 24.6374 36.834 22.2294C35.5424 23.5383 34.3565 24.9643 33.2892 26.4919C32.1003 28.1256 31.0118 29.9392 29.7507 31.4676C28.9225 32.4865 28.4677 33.2643 27.1219 33.2541C26.1557 33.2541 25.2397 32.7752 24.3771 32.2352C22.7835 31.2163 23.1882 28.2716 23.9034 26.6006C24.7932 24.6267 25.843 22.7423 27.0404 20.9693C27.7587 19.8825 28.3579 18.7005 29.2362 17.685C29.9703 16.8257 30.8926 15.9528 31.4133 14.9679C30.055 15.2769 27.7274 15.8883 26.4914 16.7408C25.4907 17.4201 25.4123 19.0809 25.0233 20.2731C24.5025 21.8829 24.2077 23.5302 23.7089 25.1163C23.2101 26.7025 22.6298 28.2716 22.5325 29.98C22.451 31.3895 22.7709 32.2726 23.3983 33.4138C23.7905 34.1202 24.3865 35.2546 23.1631 35.6452C21.237 36.2633 19.085 33.3696 18.6646 31.7054C18.2443 30.0411 19.9194 28.4312 19.9194 26.5021C19.9194 24.1246 19.8473 22.0222 20.9295 19.8247C18.9846 20.7961 16.9738 21.5229 15.0069 22.4535C14.1599 22.8577 13.4573 23.3638 12.5946 23.7578C11.4057 24.2978 11.2394 24.8005 10.7469 26.0503C9.91247 28.1188 9.41056 30.3162 8.58553 32.3745C8.16518 33.4307 8.01146 34.521 7.67267 35.5501C7.33388 36.5792 7.39662 36.192 6.30809 36.4535C5.89087 36.5554 5.61481 36.8951 5.15995 36.9087C2.62528 36.9902 5.35131 33.6651 5.47365 32.8126C5.61795 31.8344 5.44542 31.0227 5.75912 30.1158C6.0289 29.3381 6.42415 28.6486 6.70021 27.8708C5.99753 27.8029 5.87205 28.5263 5.44542 28.9814C5.04081 29.3741 4.57856 29.6909 4.0777 29.9189C2.8731 30.5676 2.43706 32.3779 1.08188 31.8412C-2.03941 30.6049 2.46529 27.1881 3.59146 26.2439C4.23454 25.7039 4.84626 25.1503 5.47365 24.5695C6.10105 23.9887 7.07351 23.4928 7.66953 22.8475C8.72042 21.7165 8.75806 18.8771 9.3384 17.3759C9.9658 15.7185 10.7908 14.0678 11.3272 12.3356C11.5751 11.5375 11.5343 10.5457 11.8731 9.76456L12.168 9.40114ZM35.8992 14.8354C34.7636 15.0392 33.5935 17.0023 32.9661 17.9227C32.025 19.3051 31.476 20.9489 30.5883 22.423C29.7005 23.897 28.7688 25.0178 28.0567 26.6074C27.4293 28.0033 26.9494 29.4603 26.3157 30.8291C27.1251 31.1212 28.4614 28.686 28.9665 28.0814C30.0268 26.8043 31.1059 25.7039 31.7897 24.111C32.4987 22.4238 33.3294 20.7998 34.2742 19.2541C35.1683 17.8073 35.3847 16.374 35.8929 14.8388L35.8992 14.8354ZM44.049 13.4802C44.2435 12.801 44.2561 11.4118 44.5666 10.848C45.2568 9.59134 47.5342 9.80871 48.5286 10.4914C49.8901 11.4288 49.5074 13.0115 49.6046 14.5297C49.6584 14.4116 49.7202 14.2981 49.7897 14.1901C50.3481 13.9082 51.1919 12.5123 51.6719 12.013C52.3181 11.3337 53.0679 10.7835 53.736 10.2027C54.373 9.62177 55.1096 9.18264 55.9036 8.91046C56.6976 8.63829 57.5334 8.53842 58.3631 8.61658C59.3161 8.68557 60.2317 9.04467 61.0044 9.65248C61.7322 10.3046 61.6318 11.2692 62.2278 11.9552C62.9054 12.7398 63.5453 12.6345 63.8277 13.847C64.0253 14.7097 63.8089 15.7422 64.1414 16.5642C65.5237 14.842 67.0086 13.2196 68.5865 11.7073C69.926 10.4608 71.096 9.28906 72.8747 8.96301C74.2707 8.70828 76.3254 8.96301 77.3198 10.2027C77.8876 10.9125 78.0852 11.3711 78.8569 11.8194C79.3526 12.1047 80.3627 12.3594 80.667 12.9232C81.6959 14.832 79.2051 16.2993 79.5032 17.899C80.5572 16.2449 82.477 13.0591 84.4878 13.144C84.6133 12.2134 83.7067 11.7379 84.8172 11.6903C85.419 11.8173 86.0083 12.0061 86.577 12.2541C87.4899 12.6719 88.7949 13.6806 89.1305 14.7335C90.2692 13.47 92.2863 13.1406 93.8109 13.3749C94.7226 13.4732 95.5956 13.8241 96.3456 14.3939C98.0929 15.7932 99.3571 18.6801 98.3219 21.0576C98.5101 20.6229 98.8363 20.487 99.1406 20.1847C100.373 18.9552 101.892 17.9363 103.162 16.7068C104.511 15.3844 106.017 14.2617 107.639 13.3682C109.003 12.6379 110.531 10.651 112.128 10.6748C113.229 10.702 115.958 12.0096 115.669 13.3919C114.86 13.6976 112.661 13.6908 114.452 14.6282C115.051 14.9407 115.208 14.7777 115.707 15.3313C116.057 15.7665 116.333 16.2656 116.523 16.8053C116.821 17.4846 116.416 17.7223 117.36 17.7122C117.831 17.7122 118.414 17.2536 118.831 17.0329C120.466 16.16 121.614 15.637 121.968 13.6365C122.282 11.7583 122.699 9.90042 123.091 8.05956C123.534 5.98096 124.277 4.32351 126.36 4.23521C131.455 4.03821 127.615 10.6137 127.301 13.1678C128.685 12.8281 129.993 12.1488 131.379 11.8092C132.631 11.4967 133.949 11.208 135.203 10.8684C136.825 10.4235 139.435 10.0023 141.085 10.6646C141.48 10.8242 142.914 11.7617 143.046 12.1387C143.3 12.8587 142.556 14.3361 142.418 15.0867C142.051 17.0872 142.255 19.1862 141.894 21.2003C141.534 23.2143 140.602 24.8582 139.485 26.5224C138.591 27.8538 136.637 28.798 135.301 27.7961C134.046 26.8587 132.989 25.1129 132.926 23.3502C132.916 22.4699 133.028 21.593 133.258 20.7485C133.654 19.39 134.068 19.3221 133.572 18.1163C133.362 17.6001 133.067 17.8616 133.312 17.0057C133.421 16.6117 133.836 16.1974 134.071 15.8781C134.57 15.2571 135.035 14.605 135.464 13.9252C133.522 14.455 131.564 14.9169 129.645 15.5385C128.098 16.0377 125.974 16.4555 125.118 18.0314C124.168 19.8789 123.365 21.8105 122.718 23.8053C122.059 25.7243 121.874 27.684 121.253 29.5792C120.902 30.6423 120.4 31.685 120.099 32.7481C119.838 33.6617 119.986 34.5719 119.763 35.4652C119.384 36.9834 118.097 35.4278 117.633 34.8335C116.601 33.5089 116.727 32.8907 116.874 31.2197C116.89 31.0329 116.799 30.7578 116.959 30.6355C117.188 30.4623 117.366 30.7374 117.461 30.9208C117.621 31.2299 117.611 31.9397 118.003 32.0178C118.389 31.094 118.474 30.0785 118.631 29.0935C118.847 27.7791 119.405 26.5496 119.544 25.2148C119.654 24.094 119.864 22.9874 120.171 21.9101C120.284 21.5365 120.864 20.3614 120.591 19.9979C120.318 19.6345 118.565 20.9184 118.239 21.2003C117.655 21.7063 118.116 21.4482 118.088 22.1309C118.019 22.517 117.891 22.8878 117.708 23.2279C117.147 22.3415 116.912 22.243 115.949 22.7456C115.045 23.2177 114.214 23.6389 113.611 24.5322C112.357 26.39 112.125 28.9067 111.064 30.9038C110.613 31.7529 110.035 32.2896 109.753 33.2541C109.511 34.0727 109.207 34.9014 108.966 35.6927C108.671 36.6003 108.276 37.4659 107.789 38.2706C107.3 39.1707 107.899 39.2114 108.36 39.9688C109.232 41.4361 108.275 42.4686 106.864 41.7553C105.314 40.9708 105.44 39.8534 104.91 38.3318C104.317 36.6336 105.371 36.1716 106.456 35.0237C107.541 33.8757 108.125 32.4016 108.828 31.0295C109.53 29.6573 109.54 28.2173 110.104 26.7874C110.669 25.3575 111.5 23.9548 111.478 22.372C110.405 23.5879 109.138 25.0892 107.827 26.1862C106.644 27.1644 105.317 28.0203 104.128 28.9033C102.852 29.8475 101.744 30.1974 100.185 29.8577C99.5902 29.7439 99.0313 29.4694 98.5603 29.0596C97.8325 28.4686 97.1643 27.4123 96.9259 28.815C96.7389 29.7682 96.9033 30.7627 97.3839 31.5865C97.9893 32.6054 98.3721 34.178 96.7565 34.2832C95.3292 34.3749 94.5387 32.9451 93.9332 31.8005C93.5192 31.0295 91.6213 29.5215 93.4533 29.6879C93.4878 27.9523 93.2023 26.2915 93.3905 24.4472C93.5505 22.8849 93.7889 21.3259 93.9332 19.7636C94.0336 18.6835 94.7928 16.0275 94.0744 15.1784C93.356 14.3293 91.157 14.7437 90.3257 15.1784C88.8733 15.9358 88.6851 17.4744 88.1926 18.979C87.7409 20.3648 87.1229 22.0358 86.9723 23.4996C86.9395 24.3027 86.8281 25.0996 86.6398 25.8771C86.4139 26.6141 86.3261 27.6365 86.0124 28.3429C85.432 29.7015 83.6283 28.5807 82.8911 27.8131C82.1539 27.0455 82.4268 26.8723 82.7782 26.0911C83.0636 25.4458 83.026 24.3623 83.0919 23.5879C83.2089 22.0359 83.2037 20.4758 83.0762 18.9247C81.8527 19.4987 80.6262 20.7452 79.798 21.8694C79.3588 22.4671 78.8287 23.0445 78.5432 23.7544C78.2578 24.4642 78.2295 25.2182 77.8939 25.9417C77.6084 26.553 77.1598 27.0523 76.89 27.6602C76.6203 28.2682 76.5136 28.8592 76.1685 29.4434C75.5411 30.4861 74.9388 30.0785 74.0323 29.8577C72.9782 29.5996 72.7492 29.3992 72.1877 28.3395C71.6827 27.3851 71.8552 26.6617 71.9587 25.5579C72.0936 24.0906 72.4606 22.6607 72.6583 21.2071C72.8308 19.93 73.157 18.7175 73.4425 17.471C73.7562 16.143 73.9538 14.5841 74.3836 13.3104C74.7444 12.2405 75.6698 12.9979 76.1121 12.1251C76.8712 10.634 74.164 11.4254 73.8942 11.5884C73.203 12.0646 72.5614 12.6203 71.9807 13.2459C71.1117 14.112 70.042 14.3463 69.1574 15.1886C68.3073 15.9834 68.1285 16.8359 67.5168 17.719C66.9992 18.4662 66.5286 18.9518 66.1051 19.9028C65.301 21.6521 64.6761 23.4915 64.2418 25.388C63.834 27.2085 63.2411 28.9169 62.9713 30.7849C62.8144 31.8922 62.0302 34.9897 60.8507 35.1391C60.2076 35.2206 59.3136 34.2153 58.8336 33.8655C58.1309 33.356 57.7294 33.0164 57.6384 32.079C57.5569 31.2604 57.6855 30.7204 57.2432 30.2143C57.0016 29.9358 56.4307 30.0853 56.7162 29.4637C56.8197 29.2328 57.2526 29.1241 57.4502 29.1241C57.4144 28.8702 57.3997 28.6133 57.4063 28.3565C57.4063 26.733 57.3122 25.0722 57.4063 23.4317C57.4533 22.6268 57.6384 21.866 57.6416 21.0542C57.6447 20.2425 57.2965 19.8825 57.0142 19.1862C56.4181 17.7122 57.7106 16.3774 58.1717 15.0052C58.3913 14.3463 58.0776 13.307 58.3599 12.7296C58.6423 12.1522 59.9661 12.0028 60.5339 11.782C60.8475 10.5457 59.1599 10.7903 58.5827 10.9533C56.9232 11.422 55.5398 12.9436 54.2191 14.1052C53.391 14.832 52.4248 15.5452 51.8162 16.537C51.0665 17.7597 50.7308 19.4409 50.1756 20.7995C49.4096 22.6796 48.8302 24.6424 48.4471 26.6549C48.0612 28.6486 48.0989 30.7034 47.6754 32.6665C47.3052 34.3851 46.8033 35.3225 45.0152 34.7282C43.8922 34.3512 42.1449 33.1794 42.2516 31.8378C42.2829 31.4201 42.4806 31.06 42.5245 30.6491C42.5684 30.2381 42.4084 30.0343 42.3613 29.6981C42.2453 28.7879 42.421 27.8912 42.5025 27.0115C42.6845 25.062 43.0421 23.0751 43.0546 21.1425C42.9982 21.4822 42.7629 21.5807 42.4272 21.4822C42.5151 19.6787 43.2083 17.9737 43.4342 16.143C43.579 15.2318 43.7909 14.3345 44.0679 13.4599L44.049 13.4802ZM111.378 15.4434C110.716 15.5792 110.418 16.4045 109.919 16.8291C109.342 17.3216 108.586 17.5084 108.006 18.0144C106.701 19.1183 105.277 19.6923 104.188 20.9931C103.31 22.0392 102.209 23.0309 101.242 24.0499C100.533 24.7835 98.7799 26.1862 98.8457 27.3206C102.337 27.5108 104.63 24.6476 107.203 22.4943C108.443 21.4149 109.562 20.1802 110.534 18.816C111.136 18.0009 113.373 16.0989 111.397 15.5351L111.378 15.4434ZM84.5223 5.46131C84.2243 5.46131 83.9169 5.58698 83.5969 5.59037C83.5356 5.88385 83.4999 6.18292 83.4902 6.48363C84.356 7.12895 83.7632 10.1314 85.7614 9.6321C86.0092 8.42638 86.0124 7.7437 87.2201 7.47198C88.0514 7.28518 89.5321 7.49916 88.9141 6.02511C88.6882 5.48509 87.2734 4.50013 86.7182 4.32691C85.5167 3.93293 85.1027 4.66655 84.5223 5.46471V5.46131ZM138.585 16.7815C138.249 17.3521 137.609 17.6205 137.245 18.1639C136.841 18.7718 136.562 19.7874 136.364 20.5176C135.874 22.1144 135.64 23.7906 135.674 25.473C136.929 25.5069 137.791 22.997 138.299 22.0086C138.977 20.6908 139.404 19.2439 140.034 17.9329C139.532 17.5559 139.043 16.7985 138.466 16.6695" fill="white"/>
<path d="M149.668 10.1007C148.489 10.1007 149.201 11.4966 149.072 12.1385C148.919 12.9197 148.228 14.0065 147.971 14.8556C147.409 16.7085 146.963 18.6 146.635 20.5174C146.481 21.4277 146.042 22.433 146.503 23.3467C146.691 23.7203 148.216 25.3539 148.592 25.4151C149.951 25.646 151.61 21.3394 152.103 20.2899C153.285 17.7867 155.026 15.4398 156.573 13.1574C157.862 11.2453 159.766 8.57228 162.097 8.31075C162.047 9.37723 162.179 10.009 161.899 11.0109C161.62 12.0128 161.523 12.9638 161.25 13.9556C160.767 15.6979 160.18 17.7596 160.017 19.614C159.829 21.7537 159.39 23.8629 159.183 25.9517C159.079 26.9706 158.48 28.6485 158.966 29.5791C159.2 29.9534 159.547 30.2284 159.948 30.3572C160.348 30.486 160.777 30.4607 161.162 30.2855C162.467 29.5689 162.953 25.7513 163.167 24.2875C163.496 22.0289 164.607 19.957 165.137 17.6882C165.689 15.3311 166.391 12.9333 166.282 10.4437C166.141 7.4107 164.779 6.24574 161.89 6.25593C159.462 6.25593 156.999 8.97305 155.409 10.6713C155.189 10.9056 154.587 11.9687 154.339 12.0298C153.583 12.2472 153.712 11.2894 153.288 10.8105C152.535 9.98179 150.591 9.66592 149.656 10.1007" fill="white"/>
<path d="M174.137 9.10892C172.882 9.95803 170.686 10.2875 169.72 11.6562C168.412 13.5073 171.047 14.8624 172.443 14.7436C174.438 14.5737 176.521 14.0643 178.506 13.7484C182.189 13.1507 185.809 12.4102 189.636 12.5936C191.12 12.6616 194.311 12.4578 193.3 14.7673C192.648 16.2618 190.775 17.386 189.508 18.1638C186.322 20.1278 183.041 21.9056 179.68 23.4893C178.143 24.2162 176.558 24.6101 174.974 25.269C173.39 25.9279 171.128 26.9163 169.437 26.7397C168.688 26.6616 167.932 25.6766 167.242 25.826C166.727 25.9381 165.987 27.0454 165.808 27.5243C165.146 29.1613 165.877 31.4845 167.348 32.32C169.513 33.5427 170.049 31.3452 171.615 30.6999C173.44 29.9459 175.338 29.4025 177.208 28.4617C179.749 27.171 182.224 25.8125 184.702 24.3384C186.398 23.3715 188.039 22.294 189.615 21.1118C191.183 19.9061 193.219 18.7343 194.505 17.2026C195.866 15.5655 195.339 14.1458 194.135 12.6786C192.544 10.729 190.057 10.4335 187.619 10.6917C185.301 10.9396 182.97 11.0585 180.655 11.303C178.632 11.5136 176.392 12.2336 174.363 12.1215C174.388 10.7222 177.945 9.64556 178.921 9.11232C180.059 8.48738 180.58 6.98277 179.146 6.36463C177.65 5.7227 175.357 8.29039 174.137 9.10892Z" fill="white"/>
<path d="M137.958 35.3503C138.504 37.0723 139.928 36.1926 141.198 35.9209C141.925 35.7566 142.68 35.8238 143.372 36.1145C144.499 36.4779 144.662 36.5085 145.7 36.1621C147.036 35.7137 148.649 35.3639 149.979 35.7137C150.54 35.8632 151.651 36.5187 152.175 36.4847C152.746 36.4542 152.526 36.0704 152.909 35.9379C153.291 35.8054 153.665 35.9379 154.048 35.7817C154.43 33.9985 151.667 34.2771 150.716 34.3314C149.229 34.4129 147.993 34.7559 146.431 34.671C144.922 34.5861 143.429 34.7729 141.933 34.6948C140.844 34.6371 138.796 34.3789 138.065 35.3503" fill="white"/>
<path d="M192.642 37.8431C194.373 38.0944 193.831 34.1071 193.382 33.2206C193.194 32.8504 193.153 32.3885 192.686 32.4089C192.535 32.4071 192.386 32.4498 192.256 32.5324C192.125 32.6149 192.018 32.7342 191.945 32.8776C191.669 33.4651 191.914 34.2667 191.914 34.895C191.914 35.8222 191.406 37.6631 192.642 37.8431Z" fill="white"/>
<path d="M159.045 39.1674C158.104 39.8195 157.432 38.7836 157.134 37.9141C156.79 36.8586 156.673 35.7316 156.792 34.6196C156.834 34.1269 156.96 33.6468 157.163 33.2033C157.332 32.8467 157.79 32.2251 158.173 32.1844C158.386 32.1739 158.6 32.2109 158.8 32.293C159.109 32.4106 159.364 32.6544 159.509 32.9723C159.854 33.6516 159.838 34.5381 160.005 35.2921C160.202 36.2397 160.049 38.4779 159.045 39.1674ZM158.442 34.6705C158.085 35.54 158.176 36.7899 158.355 37.7273C158.759 37.4658 158.762 36.6201 158.838 36.0291C158.897 35.5604 158.966 33.9912 158.339 34.8947" fill="white"/>
<path d="M161.799 32.5175C160.858 32.7994 160.579 36.5048 160.751 37.5C160.826 37.9483 160.996 38.5495 161.485 38.5189C162.16 38.4748 161.711 38.0876 161.821 37.7004C162.044 36.9124 162.135 35.941 162.345 35.1259C162.552 36.1448 163.449 37.3675 164.597 37.4151C165.745 37.4626 165.648 36.1244 165.748 35.0104C165.827 34.1307 166.504 32.1676 165.143 32.042C163.869 31.9197 164.49 34.1443 164.073 35.0002C163.571 34.4806 162.944 31.1759 161.485 32.745" fill="white"/>
<path d="M170.896 32.405C170.197 32.405 168.957 33.3492 168.841 34.1338C169.707 34.8504 170.429 34.2051 171.298 33.7738C171.326 35.1561 171.04 36.9189 172.333 37.8257C172.923 36.8272 172.474 32.5952 173.901 32.7617C173.748 34.0931 173.017 35.7709 173.519 37.177C174.174 38.9975 176.282 38.0804 175.809 36.4026C177.352 35.7233 176.58 37.2823 177.063 38.0601C177.547 38.8378 178.852 38.7393 179.037 37.7782C179.15 38.2876 179.228 38.8548 178.93 39.2997C179.589 39.7956 182.067 38.9329 182.879 38.6205C182.934 38.3726 182.934 38.1143 182.879 37.8665C182.018 37.6793 181.127 37.7462 180.298 38.0601C179.943 35.9169 181.769 36.8951 182.785 36.3619C185.194 35.1256 181.088 35.258 180.925 35.0033C180.138 33.8247 184.31 34.6636 182.685 32.7379C182.02 31.9499 179.733 32.9519 179.143 33.8349C179.554 32.5341 178.099 30.8834 177.114 32.1639C176.201 33.356 177.776 34.7825 175.696 34.9795C175.63 33.3594 176.009 32.3133 174.24 31.6816C172.694 31.1212 171.997 31.9126 170.661 32.5035" fill="white"/>
<path d="M186.474 32.6322C186.572 33.9908 185.508 36.5585 186.368 37.6963C186.939 38.4503 187.582 38.2601 187.936 37.6963C188.172 37.3261 187.826 36.8981 188.275 36.5007C188.557 36.2494 189.131 36.3479 189.492 36.3819C189.411 37.2819 190.342 39.8496 190.967 38.9563C191.591 38.0631 191.462 34.0723 191.28 32.9685C190.653 31.7424 189.897 32.3741 189.712 33.4202C189.586 34.1504 189.9 36.2019 188.68 35.5531C188.639 34.7142 188.874 33.4915 188.479 32.836C188.377 32.6545 188.237 32.5014 188.07 32.3892C187.903 32.277 187.714 32.2087 187.519 32.1899C187.323 32.1711 187.126 32.2022 186.944 32.2808C186.761 32.3594 186.598 32.4833 186.468 32.6424" fill="white"/>
<path d="M196.306 35.1254C196.331 34.5888 196.434 34.0623 196.459 33.5291C196.481 33.0672 196.503 32.4592 196.218 32.0754C196.137 31.9796 196.039 31.9032 195.929 31.8508C195.819 31.7985 195.701 31.7715 195.581 31.7715C195.461 31.7715 195.343 31.7985 195.233 31.8508C195.123 31.9032 195.025 31.9796 194.944 32.0754C194.05 33.1826 194.69 34.959 194.631 36.2462C194.587 37.2651 194.273 38.1006 194.944 38.7595C195.616 39.4184 196.127 39.0992 196.927 38.8241C197.295 38.6458 197.68 38.5114 198.075 38.4233C198.837 38.3791 198.514 38.5456 199.12 38.8546C200.061 39.3301 200.343 39.3811 201.294 38.9328C201.635 38.7731 203.025 38.155 202.994 37.7202C202.937 36.9085 201.403 37.3093 200.999 37.5131C200.556 36.2088 202.075 32.2656 200.371 31.9667C198.257 31.6033 198.884 36.1613 198.483 37.3602C196.629 37.5946 196.215 37.0376 196.306 35.1254Z" fill="white"/>
</g>
<defs>
<clipPath id="clip0_124_301">
<rect width="203" height="42" fill="white"/>
</clipPath>
</defs>
</svg>
